<svg xmlns="http://www.w3.org/2000/svg" xmlns:xlink="http://www.w3.org/1999/xlink" id="Camada_1" x="0px" y="0px" viewBox="0 0 1080 1080" style="enable-background:new 0 0 1080 1080;" xml:space="preserve"><style type="text/css">	.st0{fill:#FFFFFF;}</style><g>	<g>		<path class="st0" d="M752.3,651.9c-2.7,0-5.3-0.1-8-0.3l-5.2-0.3l-106.3-80.4l-1.7-5c-14.3-40.8-7.2-85.7,18.8-120.1   c42.8-56.5,123.6-67.7,180.1-24.9c27.4,20.7,45,50.9,49.7,84.9c4.7,34-4.1,67.8-24.8,95.2C830.4,633.2,792.5,651.9,752.3,651.9z    M751.5,617.1c29.7-0.3,57.6-13.4,75.6-37.1c15.1-20,21.6-44.6,18.1-69.4c-3.4-24.8-16.3-46.8-36.3-61.9   c-41.2-31.2-100.2-23-131.3,18.2c-18,23.8-23.5,54.4-15.2,82.9L751.5,617.1z"></path>	</g>	<g>		<path class="st0" d="M677.1,767L538.3,661.9l24.8-66.5c-24.7-65-14.4-138.9,27.7-194.4c32.6-43.2,80.2-71,133.8-78.4   c53.5-7.4,106.9,6.5,150.1,39.1c43.2,32.7,71,80.2,78.4,133.8c7.4,53.6-6.5,106.9-39.2,150.1c-42,55.5-110.3,85.6-179.6,79.4   L677.1,767z M579.9,649.9l97.5,73.8l47.3-34.7l6.8,0.8c59.3,7.3,118.6-17.6,154.6-65.1c27.1-35.8,38.6-79.9,32.4-124.3   c-6.1-44.4-29.2-83.8-65-110.8c-35.7-27.1-79.9-38.6-124.3-32.4c-44.4,6.1-83.8,29.2-110.8,65c-36,47.5-43.9,111.3-20.7,166.4   l2.7,6.4L579.9,649.9z"></path>	</g>	<g>		<path class="st0" d="M287.8,508.2l-4.9-1.8C242.4,492,212,458.6,201.6,417c-8.3-33.1-3.1-67.5,14.5-96.7s45.5-49.9,78.6-58.2   c68.4-17.1,137.9,24.7,154.9,93.1c10.4,41.6-0.7,85.4-29.7,117.2l-3.5,3.9L287.8,508.2z M325.8,293c-7.6,0-15.2,0.9-22.7,2.8   c-49.8,12.4-80.2,63-67.8,112.8c7.2,28.7,27.3,52,54.5,63.3L397.5,445c18.6-22.7,25.5-52.8,18.4-81.5c-6-24.1-21.1-44.4-42.4-57.2   C358.9,297.5,342.4,293,325.8,293z"></path>	</g>	<g>		<path class="st0" d="M299.3,638.1l-35.9-60.7c-65.7-21.4-116.4-75.5-133.1-142.6c-13-52.2-4.9-106.3,22.8-152.5   c27.7-46.1,71.7-78.7,123.9-91.7h0c107.7-26.9,217.3,38.9,244.1,146.7c16.7,67.1-2.6,138.7-50.6,188.5l-3.2,70.5L299.3,638.1z    M285.3,224.3L285.3,224.3c-89.2,22.2-143.6,112.9-121.4,202c14.3,57.4,58.7,103.3,115.7,119.7l6.6,1.9l29.7,50.1l117.7-29.4   l2.7-58.2l5-4.8c42.7-41.3,60.3-102.7,46-160C465.1,256.5,374.4,202.1,285.3,224.3z"></path>	</g>	<g>		<path class="st0" d="M377.7,741.5c-0.3,0-0.5,0-0.8,0c-33.6-0.6-59.6-35.5-59-79.5c0.3-24.9,9.1-47.6,24.2-62.2   c10.7-10.4,23.4-15.7,36.9-15.5c33.6,0.6,59.6,35.5,59,79.5c-0.3,24.9-9.1,47.6-24.2,62.2C403.4,736.2,390.9,741.5,377.7,741.5z    M378.2,619.1c-5,0-9.2,3.1-11.9,5.6c-8.2,8-13.5,22.4-13.6,37.7c-0.3,25.9,12.8,44.1,24.8,44.3c4.9-0.3,9.4-3,12.1-5.6   c8.2-8,13.5-22.4,13.6-37.7c0.3-25.9-12.8-44.1-24.8-44.3C378.3,619.1,378.3,619.1,378.2,619.1z"></path>	</g>	<g>		<path class="st0" d="M593.6,846.8c-5.6,0-11.2-1-16.7-2.9c-31.6-11.6-44.5-53.1-29.3-94.6l0,0c15.2-41.5,51.9-64.8,83.4-53.3   c31.6,11.6,44.5,53.1,29.3,94.6C647.8,824.8,620.5,846.8,593.6,846.8z M580.3,761.2L580.3,761.2c-8.9,24.3-2.6,45.9,8.6,50   c11.3,4,29.9-8.3,38.8-32.6c8.9-24.3,2.6-45.9-8.6-50C607.7,724.3,589.2,736.9,580.3,761.2z"></path>	</g>	<g>		<path class="st0" d="M508.6,896.2c-17,0-33.2-4.1-46.3-11.8c-17-10-27.4-25.4-28.7-42.4c-1.3-16.9,6.7-33.8,22-46.2   c13.7-11.1,32.1-18.1,52-19.6c19.9-1.5,39.1,2.6,54.3,11.5c17,10,27.4,25.4,28.7,42.4c2.5,33.5-30,62.4-74,65.8   C513.9,896.1,511.2,896.2,508.6,896.2z M515.5,810.7c-1.8,0-3.5,0.1-5.3,0.2h0c-12.7,1-24.6,5.3-32.7,11.9   c-3.7,3-9.8,9.2-9.3,16.6c0.6,7.4,7.5,12.6,11.7,15c9,5.3,21.4,7.8,34.1,6.8c25.8-2,42.9-16.6,42-28.5c-0.6-7.4-7.5-12.6-11.7-15   C536.5,813.1,526.3,810.7,515.5,810.7z"></path>	</g>	<g>		<path class="st0" d="M429,852.1c-25.3,0-52-18.4-67.1-48.9c-11.1-22.3-13.5-46.4-6.8-66.3c4.8-14,13.7-24.6,25.8-30.5   c30.1-14.7,69.1,4.6,88.7,44c11.1,22.3,13.5,46.4,6.8,66.3c-4.8,14-13.7,24.6-25.8,30.5C443.7,850.5,436.4,852.1,429,852.1z    M402.4,736.3c-2.3,0-4.4,0.4-6.3,1.3c-3.7,1.8-6.4,5.3-8.2,10.4c-3.7,10.8-1.8,26,5,39.6c11.5,23.1,31.5,33.4,42.3,28.2   c3.7-1.8,6.4-5.3,8.2-10.4c3.7-10.8,1.8-26-5-39.6C428.9,746.7,413.6,736.3,402.4,736.3z"></path>	</g></g></svg>