<svg xmlns="http://www.w3.org/2000/svg" id="Camada_1" data-name="Camada 1" viewBox="0 0 1080 1080"><defs><style>.cls-1{fill:#fff;}</style></defs><path class="cls-1" d="M681.68,885.11a11.88,11.88,0,0,1-1.45-.09,12.1,12.1,0,0,1-10.58-13.45L677,809.83c1.72-14.36,7.59-19.53,15.08-24.8a50.13,50.13,0,0,0,7.59-6.18c20-20.27,53.35-49,82.79-74.31C803.16,686.76,822.68,670,830,662.45a28.15,28.15,0,0,0,5.58-8.28l52.85-172.51a12.72,12.72,0,0,1,.57-1.49c2.61-5.71.4-12.52-4.92-15.19A11.22,11.22,0,0,0,869,470L808.32,630.16a11.4,11.4,0,0,1-.5,1.13,26.7,26.7,0,0,1-5.36,7.09,27.12,27.12,0,0,1-4.75,3.85L680.4,716.88a28.15,28.15,0,1,1-30-47.65L691,643.76l36.65-23.14a15.83,15.83,0,0,0,4.6-22.32c-4.73-6.94-14.63-8.77-22.06-4.08l-98.82,62.4a15.85,15.85,0,0,0-4,3.66,11.79,11.79,0,0,1-1.05,1.18c-7.69,7.59-19.15,25.75-32.26,51.14a155.37,155.37,0,0,0-17.15,71V873a12.1,12.1,0,0,1-24.2,0V783.6a179.75,179.75,0,0,1,19.85-82.1c14.39-27.88,26.57-47,36.23-56.73a39.66,39.66,0,0,1,9.68-8.61l98.82-62.4c18.63-11.77,42.78-7,55,10.9a40,40,0,0,1-11.67,56.42l-36.69,23.16-40.61,25.48a4,4,0,0,0,4.2,6.7l117.32-74.65a5.18,5.18,0,0,0,.72-.66l.07-.06a3.64,3.64,0,0,1,.34-.33h0l.16-.2L846.48,461c.1-.25.21-.5.32-.75a35.42,35.42,0,0,1,48.09-16.9,35.54,35.54,0,0,1,16.43,46.09L858.48,661.89a10.63,10.63,0,0,1-.4,1.12,52.47,52.47,0,0,1-10.74,16.28c-8,8.3-27.06,24.66-49.07,43.59-29.09,25-62.06,53.39-81.33,73a74,74,0,0,1-10.92,9c-4.39,3.08-4.39,3.08-5,7.86l-7.38,61.74A12.11,12.11,0,0,1,681.68,885.11Z"></path><path class="cls-1" d="M357,885.11a12.09,12.09,0,0,1-12-10.67l-7.38-61.74c-.58-4.78-.58-4.78-5-7.86a74.49,74.49,0,0,1-10.91-9c-19.28-19.56-52.25-47.92-81.34-73-22-18.93-41-35.29-49.07-43.59A52.26,52.26,0,0,1,180.59,663a10.68,10.68,0,0,1-.41-1.12L127.35,489.44a35.53,35.53,0,0,1,16.43-46.09,35.4,35.4,0,0,1,48.08,16.9c.12.25.22.5.32.75l60.39,159.52.26.29,0,0a1.81,1.81,0,0,1,.24.23l.05.05a5.62,5.62,0,0,0,.69.64l117.42,74.71a4,4,0,0,0,4.13-6.74l-40.58-25.46L298.1,641.08a40,40,0,0,1-11.68-56.42c12.2-17.88,36.35-22.67,55-10.9l98.81,62.4a39.48,39.48,0,0,1,9.68,8.61c9.66,9.77,21.84,28.85,36.23,56.73A179.63,179.63,0,0,1,506,783.6V873a12.1,12.1,0,0,1-24.2,0V783.6a155.37,155.37,0,0,0-17.15-71c-13.11-25.4-24.56-43.56-32.26-51.14a13.19,13.19,0,0,1-1.05-1.18,15.85,15.85,0,0,0-4-3.66l-98.81-62.4c-7.44-4.7-17.34-2.87-22.07,4.08A15.82,15.82,0,0,0,311,620.62l36.68,23.16,40.55,25.44a28.15,28.15,0,0,1-29.92,47.7L240.88,642.18a27.06,27.06,0,0,1-4.68-3.8,26.7,26.7,0,0,1-5.36-7.09,9.4,9.4,0,0,1-.49-1.13L169.72,470a11.23,11.23,0,0,0-15.1-5c-5.32,2.67-7.53,9.48-4.92,15.19a10,10,0,0,1,.57,1.49l52.85,172.51a28.15,28.15,0,0,0,5.58,8.28c7.28,7.52,26.8,24.31,47.47,42.09,29.45,25.33,62.82,54,82.79,74.31a50.13,50.13,0,0,0,7.59,6.18c7.5,5.27,13.37,10.44,15.08,24.8L369,871.57A12.09,12.09,0,0,1,358.43,885,11.76,11.76,0,0,1,357,885.11Z"></path><path class="cls-1" d="M572.16,302a49,49,0,1,1,49-49A49,49,0,0,1,572.16,302Zm0-73.78A24.8,24.8,0,1,0,597,253,24.83,24.83,0,0,0,572.16,228.2Z"></path><path class="cls-1" d="M521.64,579.13a33.91,33.91,0,0,1-33.87-33.88V478.9L435.2,454.28c-.93-.43-1.86-.88-2.78-1.34a85.56,85.56,0,0,1-46.71-63.88,88.35,88.35,0,0,1,25.08-76.62l.58-.54L462.1,268a73.47,73.47,0,0,1,26.51-16.89c27.85-10,51.91,1,63.4,16.3,9.68,12.93,14.81,25.58,8.45,45.32-3.66,11.34-10.36,17.69-14.37,21.49-.8.76-1.91,1.81-2.22,2.21A12,12,0,0,1,527.18,340a12.17,12.17,0,0,1-3.54-16.8,35.93,35.93,0,0,1,5.81-6.5c3.2-3,6.22-5.89,8-11.35,3.08-9.54,2.14-14.13-4.79-23.38-8.49-11.34-24.52-12.12-35.83-8a49.45,49.45,0,0,0-18,11.63c-.19.18-.39.37-.59.54l-50.7,43.85a63.23,63.23,0,0,0-17.91,55.32,61.61,61.61,0,0,0,33.61,46c.73.37,1.48.73,2.24,1.09L505,460.25a12.1,12.1,0,0,1,7,11v74a9.68,9.68,0,1,0,19.35,0v-86.5a19.35,19.35,0,0,0-10.57-17.29l-58.3-29.87a12.1,12.1,0,0,1,11-21.53l58.31,29.87a43.45,43.45,0,0,1,23.73,38.82v86.5A33.92,33.92,0,0,1,521.64,579.13Z"></path><path class="cls-1" d="M660.82,576.37a12.1,12.1,0,0,1-12.1-12.1V430.52a12.2,12.2,0,1,0-24.39,0V440a12.1,12.1,0,0,1-24.2,0v-9.43a36.4,36.4,0,1,1,72.79,0V564.27A12.1,12.1,0,0,1,660.82,576.37Z"></path><path class="cls-1" d="M604.68,414.62H558.49A40.07,40.07,0,0,1,530,402.81l-46-46.05A12.1,12.1,0,0,1,501,339.65l46,46a16.06,16.06,0,0,0,11.42,4.74h46.19a6.93,6.93,0,0,0,0-13.85H564.15a12.09,12.09,0,0,1-8.75-3.74l-43-45a12.1,12.1,0,1,1,17.49-16.72l39.43,41.23h35.36a31.12,31.12,0,1,1,0,62.24Z"></path><path class="cls-1" d="M412.34,576.68a32.7,32.7,0,0,1-30.11-45.38L407,471.55a12.1,12.1,0,0,1,22.35,9.27l-24.81,59.81a8.5,8.5,0,0,0,4.49,11.17,8.48,8.48,0,0,0,11.14-4.61l.09-.22,25.27-58.63a12.1,12.1,0,0,1,22.22,9.58l-25.22,58.53a32.77,32.77,0,0,1-30.21,20.23Z"></path><path class="cls-1" d="M170,414.63a11.63,11.63,0,0,1-1.85-.15,12.09,12.09,0,0,1-10.13-13.79,365.58,365.58,0,0,1,722.56,0,12.1,12.1,0,0,1-23.92,3.67,341.38,341.38,0,0,0-674.72,0A12.11,12.11,0,0,1,170,414.63Z"></path></svg>