<svg xmlns="http://www.w3.org/2000/svg" xmlns:xlink="http://www.w3.org/1999/xlink" id="Camada_1" x="0px" y="0px" viewBox="0 0 1080 1080" style="enable-background:new 0 0 1080 1080;" xml:space="preserve"><style type="text/css">	.st0{fill:none;stroke:#FFFFFF;stroke-width:23;stroke-linecap:round;stroke-linejoin:round;stroke-miterlimit:10;}</style><g>	<g>		<path class="st0" d="M539.7,948c218.4-76.8,343.7-234.5,343.7-621.9c0,0-246.7-51.9-343.7-193.4C442.6,274.2,196,326.1,196,326.1   C196,713.5,321.3,871.2,539.7,948z"></path>		<path class="st0" d="M423.2,300.7c41-22.1,81.9-49.4,116.5-82.6c88.9,85.4,219.2,131.6,287.3,151.2"></path>		<path class="st0" d="M335.3,341.3c6-2.1,18-7.4,21.3-8.9"></path>	</g>	<g>		<g>			<path class="st0" d="M615.8,702H463.6c-16.4,0-29.6-13.6-29-30l4.8-140.1c0.4-10.4,8.9-18.7,19.4-18.7h162.1    c10.4,0,19,8.3,19.4,18.7l4.8,140.1C645.4,688.4,632.3,702,615.8,702z"></path>			<path class="st0" d="M611.2,513.2v-50.7c0-33-26.8-59.8-59.8-59.8h-11.7H528c-33,0-59.8,26.8-59.8,59.8v50.7"></path>		</g>		<line class="st0" x1="539.7" y1="577.3" x2="539.7" y2="637.9"></line>	</g></g></svg>