<svg xmlns="http://www.w3.org/2000/svg" id="Camada_1" data-name="Camada 1" viewBox="0 0 1080 1080"><defs><style>.cls-1{fill:#fff;}</style></defs><g id="g1432"><g id="g1375"><g id="path1344"><path class="cls-1" d="M366.84,702.33H280.09a86.85,86.85,0,0,1-86.75-86.75,10.84,10.84,0,0,1,10.84-10.85H442.74a10.85,10.85,0,0,1,10.85,10.85A86.85,86.85,0,0,1,366.84,702.33ZM215.93,626.42a65.17,65.17,0,0,0,64.16,54.22h86.75A65.17,65.17,0,0,0,431,626.42Z"></path></g><g id="path1346"><path class="cls-1" d="M204.17,626.42a10.85,10.85,0,0,1-9.79-15.48L292,404.9a10.85,10.85,0,1,1,19.6,9.29L214,620.22A10.85,10.85,0,0,1,204.17,626.42Z"></path></g><g id="path1348"><path class="cls-1" d="M442.75,626.42a10.85,10.85,0,0,1-9.81-6.2l-97.59-206A10.85,10.85,0,1,1,355,404.9l97.59,206a10.85,10.85,0,0,1-9.79,15.48Z"></path></g></g><g id="path1362"><path class="cls-1" d="M562,756.55a10.84,10.84,0,0,1-10.85-10.85V388.15a10.85,10.85,0,0,1,4.65-8.9C604.54,345.32,650,334.3,694.94,345.5c11,2.76,28,9.73,35.62,13.5a10.83,10.83,0,0,1,5.67,12.43,22.35,22.35,0,0,0-.71,5.58,21.69,21.69,0,1,0,37-15.4h0c-.05,0-32-27.06-72.29-37.13-23.33-5.83-71.57-10.54-132.91,23.53a10.85,10.85,0,0,1-16.11-9.48V284.39A10.85,10.85,0,0,1,556.6,275a32.54,32.54,0,1,0-32.53,0,10.86,10.86,0,0,1,5.42,9.39v54.18A10.85,10.85,0,0,1,513.36,348c-34.05-19-68.38-28.86-99.23-28a152.71,152.71,0,0,0-33.65,4.46C340,334.59,308,361.85,307.64,362.12A21.32,21.32,0,0,0,301.77,377a21.69,21.69,0,1,0,43.38,0,22,22,0,0,0-.71-5.56A10.86,10.86,0,0,1,350.07,359c7.69-3.85,24.35-10.68,35.66-13.51,44.87-11.21,90.39-.18,139.12,33.76a10.81,10.81,0,0,1,4.64,8.89V745.7a10.85,10.85,0,1,1-21.69,0V393.88c-41.47-27.67-79.75-36.62-116.81-27.34-6.8,1.7-16.71,5.44-24.19,8.65,0,.61,0,1.21,0,1.82a43.38,43.38,0,1,1-73.9-30.81c2-1.76,36.69-31.36,82.28-42.76a175.39,175.39,0,0,1,38.43-5.11c29.84-.69,62,7.06,94.15,22.41V290.2a54.22,54.22,0,1,1,65.06,0v30.58c45.32-21.35,91.81-27.54,132.58-17.34,45.6,11.4,80.28,41,81.75,42.25A43.37,43.37,0,1,1,713.83,377c0-.6,0-1.2,0-1.79-7.54-3.23-17.58-7-24.18-8.68-37-9.25-75.33-.34-116.82,27.34V745.7A10.84,10.84,0,0,1,562,756.55Z"></path></g><g id="g1401"><g id="path1395"><path class="cls-1" d="M800.58,702.33H713.83a86.85,86.85,0,0,1-86.75-86.75,10.84,10.84,0,0,1,10.84-10.85H876.49a10.84,10.84,0,0,1,10.84,10.85A86.85,86.85,0,0,1,800.58,702.33ZM649.67,626.42a65.18,65.18,0,0,0,64.16,54.22h86.75a65.18,65.18,0,0,0,64.16-54.22Z"></path></g><g id="path1397"><path class="cls-1" d="M637.91,626.42a10.85,10.85,0,0,1-9.78-15.48l97.59-206a10.84,10.84,0,1,1,19.59,9.29l-97.59,206A10.84,10.84,0,0,1,637.91,626.42Z"></path></g><g id="path1399"><path class="cls-1" d="M876.5,626.42a10.84,10.84,0,0,1-9.81-6.2l-97.59-206a10.84,10.84,0,1,1,19.59-9.29l97.59,206a10.85,10.85,0,0,1-9.78,15.48Z"></path></g></g><g id="g1418"><g id="path1325"><path class="cls-1" d="M681.3,886.67H399.37a10.84,10.84,0,0,1-10.85-10.84,86.85,86.85,0,0,1,86.75-86.75H605.39a86.84,86.84,0,0,1,86.75,86.75A10.84,10.84,0,0,1,681.3,886.67ZM411.12,865H669.56a65.17,65.17,0,0,0-64.17-54.21H475.27A65.15,65.15,0,0,0,411.12,865Z"></path></g><g id="rect1413"><path class="cls-1" d="M594.55,810.77a10.84,10.84,0,0,1-10.84-10.85V767.39a10.73,10.73,0,0,0-10.85-10.84H507.8A10.73,10.73,0,0,0,497,767.39v32.53a10.85,10.85,0,1,1-21.69,0V767.39a32.57,32.57,0,0,1,32.53-32.53h65.06a32.56,32.56,0,0,1,32.53,32.53v32.53A10.84,10.84,0,0,1,594.55,810.77Z"></path></g></g></g></svg>